<!--
  - Copyright (c) 2025-2026 Lyxot and contributors.
  -
  - 此源代码的使用受 GNU AFFERO GENERAL PUBLIC LICENSE version 3 许可证的约束, 可以在以下链接找到该许可证。
  - Use of this source code is governed by the GNU AGPLv3 license, which can be found at the following link.
  -
  - https://github.com/Lyxot/TimeFlow/blob/master/LICENSE
  -->

<svg width="48"
    height="48"
    viewBox="0 0 48 48"
    fill="none"
    xmlns="http://www.w3.org/2000/svg">
    <path
        d="M8.38388 6.61612C7.89573 6.12796 7.10427 6.12796 6.61612 6.61612C6.12796 7.10427 6.12796 7.89573 6.61612 8.38388L22.2322 24L6.6164 39.6158C6.12824 40.104 6.12824 40.8954 6.6164 41.3836C7.10455 41.8718 7.89601 41.8718 8.38416 41.3836L24 25.7678L39.6153 41.3831C40.1035 41.8713 40.895 41.8713 41.3831 41.3831C41.8713 40.895 41.8713 40.1035 41.3831 39.6153L25.7678 24L41.3834 8.38437C41.8716 7.89622 41.8716 7.10476 41.3834 6.6166C40.8952 6.12845 40.1038 6.12845 39.6156 6.6166L24 22.2322L8.38388 6.61612Z"
        fill="#212121" />
</svg>
